<svg width="24" height="24" viewBox="0 0 24 24" fill="none" xmlns="http://www.w3.org/2000/svg">
<g id="vuesax/bold/menu">
<g id="menu">
<path id="Vector" d="M21.24 7.80794V7.81V16.19C21.24 17.8608 20.7449 19.1045 19.9197 19.9297C19.0945 20.7549 17.8508 21.25 16.18 21.25H7.81C6.13917 21.25 4.89575 20.7549 4.07066 19.9288C3.24546 19.1025 2.75 17.8564 2.75 16.18V7.81C2.75 6.13915 3.24514 4.89552 4.07033 4.07033C4.89552 3.24514 6.13915 2.75 7.81 2.75H16.19C17.861 2.75 19.1043 3.24521 19.9281 4.07C20.7517 4.89463 21.2446 6.13757 21.24 7.80794ZM7 18H17C17.8242 18 18.5 17.3242 18.5 16.5C18.5 15.6758 17.8242 15 17 15H7C6.17579 15 5.5 15.6758 5.5 16.5C5.5 17.3242 6.17579 18 7 18ZM7 13.5H17C17.8242 13.5 18.5 12.8242 18.5 12C18.5 11.1758 17.8242 10.5 17 10.5H7C6.17579 10.5 5.5 11.1758 5.5 12C5.5 12.8242 6.17579 13.5 7 13.5ZM7 9H17C17.8242 9 18.5 8.32421 18.5 7.5C18.5 6.67579 17.8242 6 17 6H7C6.17579 6 5.5 6.67579 5.5 7.5C5.5 8.32421 6.17579 9 7 9Z" fill="#DFDFE2" stroke="#DFDFE2" stroke-width="1.5"/>
</g>
</g>
</svg>
