<svg width="24" height="24" viewBox="0 0 24 24" fill="none" xmlns="http://www.w3.org/2000/svg">
<g id="vuesax/bold/message-text">
<g id="message-text">
<path id="Vector" d="M9.89891 18.8886L9.89896 18.8885L9.89346 18.8814C9.72171 18.6591 9.48906 18.4948 9.27291 18.3867C9.05808 18.2793 8.78453 18.19 8.5 18.19H7C4.65127 18.19 2.75 16.2929 2.75 13.96V12.96V6.98C2.75 4.64715 4.65127 2.75 7 2.75H17C19.3487 2.75 21.25 4.64715 21.25 6.98V13.96C21.25 16.2929 19.3487 18.19 17 18.19H15.5C14.9521 18.19 14.4325 18.4524 14.1029 18.8862L14.1011 18.8886L12.6011 20.8786L12.6 20.88C12.3908 21.1589 12.1663 21.24 12 21.24C11.8337 21.24 11.6092 21.1589 11.4 20.88L11.3989 20.8786L9.89891 18.8886ZM7 14.5H13C13.8242 14.5 14.5 13.8242 14.5 13C14.5 12.1758 13.8242 11.5 13 11.5H7C6.17579 11.5 5.5 12.1758 5.5 13C5.5 13.8242 6.17579 14.5 7 14.5ZM7 9.5H17C17.8242 9.5 18.5 8.82421 18.5 8C18.5 7.17579 17.8242 6.5 17 6.5H7C6.17579 6.5 5.5 7.17579 5.5 8C5.5 8.82421 6.17579 9.5 7 9.5Z" fill="#DFDFE2" stroke="#DFDFE2" stroke-width="1.5"/>
</g>
</g>
</svg>
