<svg width="24" height="24" viewBox="0 0 24 24" fill="none" xmlns="http://www.w3.org/2000/svg">
<g id="vuesax/bulk/coin">
<g id="coin">
<path id="Vector" d="M18.5 12.6504V16.3504C18.5 19.4704 15.59 22.0004 12 22.0004C8.41 22.0004 5.5 19.4704 5.5 16.3504V12.6504C5.5 15.7704 8.41 18.0004 12 18.0004C15.59 18.0004 18.5 15.7704 18.5 12.6504Z" fill="#FFB300"/>
<path id="Vector_2" opacity="0.4" d="M18.5 7.65039V12.6504C18.5 15.7704 15.59 18.0004 12 18.0004C8.41 18.0004 5.5 15.7704 5.5 12.6504V7.65039C5.5 8.56039 5.75 9.40039 6.19 10.1204C7.26 11.8804 9.46 13.0004 12 13.0004C14.54 13.0004 16.74 11.8804 17.81 10.1204C18.25 9.40039 18.5 8.56039 18.5 7.65039Z" fill="#FFB300"/>
<path id="Vector_3" d="M18.5 7.65C18.5 8.56 18.25 9.4 17.81 10.12C16.74 11.88 14.54 13 12 13C9.46 13 7.26 11.88 6.19 10.12C5.75 9.4 5.5 8.56 5.5 7.65C5.5 4.53 8.41 2 12 2C13.8 2 15.42 2.63 16.6 3.65C17.77 4.68 18.5 6.09 18.5 7.65Z" fill="#FFB300"/>
</g>
</g>
</svg>
