<svg width="24" height="24" viewBox="0 0 24 24" fill="none" xmlns="http://www.w3.org/2000/svg">
<g id="vuesax/bold/home-2">
<g id="home-2">
<path id="Vector" d="M13.8499 3.40393L13.8503 3.40422L19.6101 7.43412C20.039 7.73431 20.4592 8.23845 20.7729 8.83929C21.0865 9.4401 21.2602 10.0736 21.2602 10.5997V17.3797C21.2602 19.5155 19.526 21.2497 17.3902 21.2497H6.61023C4.47656 21.2497 2.74023 19.5076 2.74023 17.3697V10.4697C2.74023 9.98304 2.89706 9.38192 3.1831 8.80099C3.46893 8.22047 3.85184 7.72501 4.24151 7.42107L4.24167 7.42094L9.2496 3.51255C9.24994 3.51229 9.25027 3.51203 9.25061 3.51177C10.5009 2.54385 12.5495 2.49281 13.8499 3.40393ZM12.0002 19.4997C12.8244 19.4997 13.5002 18.8239 13.5002 17.9997V14.9997C13.5002 14.1755 12.8244 13.4997 12.0002 13.4997C11.176 13.4997 10.5002 14.1755 10.5002 14.9997V17.9997C10.5002 18.8239 11.176 19.4997 12.0002 19.4997Z" fill="#DFDFE2" stroke="#DFDFE2" stroke-width="1.5"/>
</g>
</g>
</svg>
