<svg width="512" height="512" viewBox="0 0 512 512" fill="none" xmlns="http://www.w3.org/2000/svg">
<rect width="512" height="512" rx="256" fill="#40B75B"/>
<path d="M482.417 256.5C482.417 381.176 381.002 482.219 255.988 482.219C130.974 482.219 29.4375 381.055 29.4375 256.5H482.417Z" fill="#00CC5C"/>
<path d="M482.417 256.5H29.4375C29.4375 131.824 130.853 30.9017 255.867 30.9017C380.881 30.9017 482.296 131.945 482.296 256.5H482.417Z" fill="#00FF7F"/>
<path d="M255.867 495C123.833 495 16.4883 388.049 16.4883 256.5C16.4883 124.951 123.833 18 255.867 18C263.007 18 268.816 23.7877 268.816 30.9017C268.816 38.0157 263.007 43.8033 255.867 43.8033C138.114 43.6828 42.2656 139.179 42.2656 256.5C42.2656 373.821 138.114 469.317 255.867 469.317C373.62 469.317 469.468 373.821 469.468 256.5C469.468 205.979 451.315 156.904 418.518 118.561C413.919 113.135 414.524 105.056 419.97 100.474C425.416 95.8923 433.525 96.4952 438.123 101.921C474.914 144.967 495.245 199.829 495.245 256.5C495.245 388.049 387.9 495 255.867 495Z" fill="white"/>
<path d="M258.287 415.058C197.051 415.058 141.502 387.325 116.33 344.038C112.82 337.889 114.878 330.052 121.05 326.434C127.222 322.817 135.088 324.987 138.719 331.137C159.292 366.586 206.127 389.255 258.287 389.255C258.771 389.255 259.134 389.255 259.618 389.255C309.963 388.893 351.957 367.189 372.167 331.257C375.677 325.108 383.543 322.817 389.715 326.314C395.887 329.81 398.187 337.648 394.677 343.797C369.989 387.928 319.523 414.455 259.86 414.937C259.376 414.937 258.892 414.937 258.287 414.937V415.058Z" fill="white"/>
<path d="M345.301 110.12C338.161 110.12 332.352 104.333 332.352 97.2187V30.9017C332.352 23.7877 338.161 18 345.301 18C352.441 18 358.25 23.7877 358.25 30.9017V97.3392C358.25 104.453 352.441 110.241 345.301 110.241V110.12Z" fill="white"/>
<path d="M378.581 76.9617H311.899C304.759 76.9617 298.95 71.174 298.95 64.06C298.95 56.946 304.759 51.1583 311.899 51.1583H378.581C385.721 51.1583 391.53 56.946 391.53 64.06C391.53 71.174 385.721 76.9617 378.581 76.9617Z" fill="white"/>
</svg>
