<svg width="24" height="24" viewBox="0 0 24 24" fill="none" xmlns="http://www.w3.org/2000/svg">
<path d="M21.5609 10.7401L20.2109 9.16008C19.9609 8.86008 19.7509 8.30008 19.7509 7.90008V6.20008C19.7509 5.14008 18.8809 4.27008 17.8209 4.27008H16.1209C15.7209 4.27008 15.1509 4.06008 14.8509 3.81008L13.2709 2.46008C12.5809 1.87008 11.4509 1.87008 10.7609 2.46008L9.16086 3.81008C8.86086 4.06008 8.30086 4.27008 7.90086 4.27008H6.17086C5.11086 4.27008 4.24086 5.14008 4.24086 6.20008V7.90008C4.24086 8.29008 4.04086 8.85008 3.79086 9.15008L2.44086 10.7401C1.86086 11.4401 1.86086 12.5601 2.44086 13.2401L3.79086 14.8301C4.04086 15.1201 4.24086 15.6901 4.24086 16.0801V17.7901C4.24086 18.8501 5.11086 19.7201 6.17086 19.7201H7.91086C8.30086 19.7201 8.87086 19.9301 9.17086 20.1801L10.7509 21.5301C11.4409 22.1201 12.5709 22.1201 13.2609 21.5301L14.8409 20.1801C15.1409 19.9301 15.7009 19.7201 16.1009 19.7201H17.8009C18.8609 19.7201 19.7309 18.8501 19.7309 17.7901V16.0901C19.7309 15.6901 19.9409 15.1301 20.1909 14.8301L21.5409 13.2501C22.1509 12.5701 22.1509 11.4401 21.5609 10.7401ZM11.2509 8.13008C11.2509 7.72008 11.5909 7.38008 12.0009 7.38008C12.4109 7.38008 12.7509 7.72008 12.7509 8.13008V12.9601C12.7509 13.3701 12.4109 13.7101 12.0009 13.7101C11.5909 13.7101 11.2509 13.3701 11.2509 12.9601V8.13008ZM12.0009 16.8701C11.4509 16.8701 11.0009 16.4201 11.0009 15.8701C11.0009 15.3201 11.4409 14.8701 12.0009 14.8701C12.5509 14.8701 13.0009 15.3201 13.0009 15.8701C13.0009 16.4201 12.5609 16.8701 12.0009 16.8701Z" fill="#40B75B"/>
</svg>
