<svg width="20" height="20" viewBox="0 0 20 20" fill="none" xmlns="http://www.w3.org/2000/svg">
<path d="M14 1.66699H11.8333C9.16667 1.66699 7.5 3.33366 7.5 6.00033V9.37533H12.7083C13.05 9.37533 13.3333 9.65866 13.3333 10.0003C13.3333 10.342 13.05 10.6253 12.7083 10.6253H7.5V14.0003C7.5 16.667 9.16667 18.3337 11.8333 18.3337H13.9917C16.6583 18.3337 18.325 16.667 18.325 14.0003V6.00033C18.3333 3.33366 16.6667 1.66699 14 1.66699Z" fill="#E86F66"/>
<path d="M3.79922 9.37454L5.52422 7.64954C5.64922 7.52454 5.70755 7.36621 5.70755 7.20788C5.70755 7.04954 5.64922 6.88288 5.52422 6.76621C5.28255 6.52454 4.88255 6.52454 4.64089 6.76621L1.84922 9.55788C1.60755 9.79954 1.60755 10.1995 1.84922 10.4412L4.64089 13.2329C4.88255 13.4745 5.28255 13.4745 5.52422 13.2329C5.76589 12.9912 5.76589 12.5912 5.52422 12.3495L3.79922 10.6245H7.49922V9.37454H3.79922Z" fill="#E86F66"/>
</svg>
