<svg width="24" height="24" viewBox="0 0 24 24" fill="none" xmlns="http://www.w3.org/2000/svg">
<path d="M21.79 20.76L21.07 20.04C21.44 19.48 21.66 18.8 21.66 18.08C21.66 16.1 20.06 14.5 18.08 14.5C16.1 14.5 14.5 16.1 14.5 18.08C14.5 20.06 16.1 21.66 18.08 21.66C18.81 21.66 19.48 21.44 20.04 21.07L20.76 21.79C20.9 21.93 21.09 22 21.27 22C21.46 22 21.64 21.93 21.78 21.79C22.07 21.5 22.07 21.04 21.79 20.76Z" fill="#40B75B"/>
<path d="M2.02977 14.6299C2.02977 14.6599 2.00977 14.6999 2.00977 14.7299C2.92977 16.5699 4.42977 18.0799 6.26977 18.9899C6.29977 18.9899 6.33977 18.9699 6.36977 18.9699C6.02977 17.8099 5.76977 16.6199 5.57977 15.4299C4.37977 15.2299 3.18977 14.9699 2.02977 14.6299Z" fill="#40B75B"/>
<path d="M19.0701 6.43043C18.1301 4.46043 16.5401 2.87043 14.5801 1.94043C14.9401 3.13043 15.2401 4.35043 15.4401 5.57043C16.6601 5.77043 17.8801 6.06043 19.0701 6.43043Z" fill="#40B75B"/>
<path d="M1.92969 6.42953C3.12969 6.06953 4.34969 5.76953 5.56969 5.56953C5.76969 4.37953 6.01969 3.19953 6.35969 2.03953C6.32969 2.03953 6.28969 2.01953 6.25969 2.01953C4.37969 2.94953 2.84969 4.51953 1.92969 6.42953Z" fill="#40B75B"/>
<path d="M13.8197 5.36C13.5797 4.06 13.2797 2.76 12.8497 1.5C12.8297 1.43 12.8297 1.37 12.8197 1.29C12.0797 1.11 11.2997 1 10.4997 1C9.68969 1 8.91969 1.11 8.16969 1.3C8.15969 1.37 8.16969 1.43 8.14969 1.51C7.72969 2.77 7.41969 4.06 7.17969 5.36C9.38969 5.12 11.6097 5.12 13.8197 5.36Z" fill="#40B75B"/>
<path d="M5.36 7.17969C4.05 7.41969 2.77 7.72969 1.5 8.14969C1.43 8.16969 1.37 8.16969 1.3 8.17969C1.11 8.91969 1 9.69969 1 10.4997C1 11.3097 1.11 12.0797 1.3 12.8297C1.37 12.8397 1.43 12.8297 1.51 12.8497C2.77 13.2697 4.06 13.5797 5.37 13.8197C5.12 11.6097 5.12 9.38969 5.36 7.17969Z" fill="#40B75B"/>
<path d="M19.7009 8.17969C19.6309 8.17969 19.5709 8.16969 19.4909 8.14969C18.2309 7.72969 16.9309 7.41969 15.6309 7.17969C15.8809 9.38969 15.8809 11.6097 15.6309 13.8097C16.9309 13.5697 18.2309 13.2697 19.4909 12.8397C19.5609 12.8197 19.6209 12.8297 19.7009 12.8197C19.8809 12.0697 20.0009 11.2997 20.0009 10.4897C20.0009 9.69969 19.8909 8.92969 19.7009 8.17969Z" fill="#40B75B"/>
<path d="M7.17969 15.6399C7.41969 16.9499 7.71969 18.2399 8.14969 19.4999C8.16969 19.5699 8.15969 19.6299 8.16969 19.7099C8.91969 19.8899 9.68969 19.9999 10.4997 19.9999C11.2997 19.9999 12.0797 19.8899 12.8197 19.6999C12.8297 19.6299 12.8297 19.5699 12.8497 19.4899C13.2697 18.2299 13.5797 16.9399 13.8197 15.6299C12.7197 15.7499 11.6097 15.8399 10.4997 15.8399C9.38969 15.8399 8.27969 15.7599 7.17969 15.6399Z" fill="#40B75B"/>
<path d="M6.94961 6.94961C6.64961 9.30961 6.64961 11.6896 6.94961 14.0596C9.30961 14.3596 11.6896 14.3596 14.0596 14.0596C14.3596 11.6996 14.3596 9.31961 14.0596 6.94961C11.6896 6.64961 9.30961 6.64961 6.94961 6.94961Z" fill="#40B75B"/>
</svg>
