<svg width="160" height="160" viewBox="0 0 160 160" fill="none" xmlns="http://www.w3.org/2000/svg">
<path d="M27.6105 143.232C-1.32069 126.528 -1.32069 99.4429 27.6105 82.7517C56.5417 66.0605 103.451 66.0477 132.391 82.7517C161.332 99.4557 161.323 126.541 132.391 143.232C103.46 159.923 56.5449 159.939 27.6105 143.232Z" fill="#F5F5F5"/>
<path d="M91.8632 127.48C76.0999 135.982 59.8914 136.515 55.6606 128.67C51.4297 120.826 60.7787 107.575 76.5421 99.0728C92.3054 90.5709 108.514 90.0378 112.745 97.8822C114.338 100.836 114.006 104.556 112.131 108.5L116.593 114.582C117.117 115.296 116.522 116.289 115.645 116.164L107.5 115C103.657 119.838 98.9775 123.643 91.8632 127.48Z" fill="#E0E0E0"/>
<path d="M118.993 106.148C122.145 102.391 127.083 99.9429 132.635 98.4965C138.119 97.0725 139.102 93.6965 135.467 92.6053C131.348 91.3637 126.209 93.6421 122.894 96.8133C117.121 102.34 116.395 106.56 116.395 106.56L118.993 106.148Z" fill="#40B75B"/>
<path opacity="0.15" d="M118.993 106.148C122.145 102.391 127.083 99.9429 132.635 98.4965C138.119 97.0725 139.102 93.6965 135.467 92.6053C131.348 91.3637 126.209 93.6421 122.894 96.8133C117.121 102.34 116.395 106.56 116.395 106.56L118.993 106.148Z" fill="black"/>
<path d="M117.371 105.92C117.348 105.925 117.324 105.925 117.301 105.92C117.282 105.911 117.265 105.898 117.251 105.882C117.237 105.867 117.226 105.848 117.22 105.828C117.213 105.808 117.21 105.787 117.211 105.766C117.213 105.745 117.218 105.725 117.227 105.706C121.906 96.1057 132.267 93.7441 134.776 93.9233C134.818 93.9266 134.857 93.9462 134.884 93.978C134.912 94.0097 134.926 94.051 134.923 94.0929C134.919 94.1351 134.899 94.174 134.867 94.2015C134.834 94.229 134.793 94.2428 134.751 94.2401C132.293 94.0545 122.12 96.3937 117.515 105.847C117.5 105.87 117.478 105.889 117.453 105.902C117.428 105.915 117.4 105.921 117.371 105.92Z" fill="white"/>
<path d="M116.395 107.146C116.395 107.3 116.436 107.452 116.514 107.585C116.591 107.718 116.703 107.829 116.837 107.905C116.972 107.981 117.124 108.02 117.278 108.018C117.433 108.016 117.584 107.974 117.716 107.895C120.647 106.189 124.923 105.245 131.841 107.216C135.521 108.262 137.332 107.562 138.107 106.064C138.971 104.4 137.147 102.791 135.067 102.032C127.985 99.4433 121.595 101.21 116.395 106.375V107.146Z" fill="#40B75B"/>
<path d="M116.8 107.284C116.778 107.284 116.755 107.28 116.734 107.271C116.713 107.262 116.694 107.249 116.679 107.233C116.649 107.202 116.633 107.161 116.633 107.119C116.633 107.077 116.649 107.036 116.679 107.005C122.794 101.54 132.266 102.605 135.85 104.737C135.886 104.758 135.913 104.793 135.924 104.833C135.934 104.874 135.929 104.918 135.908 104.954C135.886 104.991 135.85 105.017 135.809 105.028C135.768 105.039 135.724 105.033 135.687 105.012C132.167 102.922 122.887 101.882 116.893 107.252C116.866 107.271 116.834 107.282 116.8 107.284Z" fill="white"/>
<path d="M47.9753 119.889C45.2873 115.786 40.6729 112.772 35.3289 110.682C30.0553 108.621 29.4761 105.156 33.2137 104.497C37.4505 103.751 42.2857 106.621 45.2041 110.161C50.2857 116.33 50.5065 120.615 50.5065 120.615L47.9753 119.889Z" fill="#40B75B"/>
<path opacity="0.15" d="M47.9753 119.889C45.2873 115.786 40.6729 112.772 35.3289 110.682C30.0553 108.621 29.4761 105.156 33.2137 104.497C37.4505 103.751 42.2857 106.621 45.2041 110.161C50.2857 116.33 50.5065 120.615 50.5065 120.615L47.9753 119.889Z" fill="black"/>
<path d="M49.5997 119.863C49.6229 119.868 49.6468 119.868 49.6701 119.863C49.71 119.849 49.7427 119.819 49.7613 119.781C49.7798 119.743 49.7827 119.699 49.7693 119.659C46.2493 109.575 36.2525 106.007 33.7309 105.899C33.689 105.897 33.6481 105.912 33.6169 105.94C33.5858 105.968 33.567 106.007 33.5645 106.049C33.5636 106.092 33.5789 106.133 33.6075 106.164C33.6361 106.196 33.6757 106.215 33.7181 106.219C36.1821 106.321 46.0061 109.844 49.4653 119.774C49.4777 119.799 49.4967 119.821 49.5204 119.837C49.544 119.853 49.5714 119.862 49.5997 119.863Z" fill="white"/>
<path d="M50.5285 120.42C50.5034 120.647 50.4201 120.864 50.2867 121.05C50.1533 121.236 49.9742 121.384 49.7668 121.481C49.5593 121.577 49.3305 121.619 49.1024 121.601C48.8743 121.583 48.6546 121.507 48.4645 121.38C45.7509 119.562 41.7093 118.381 35.0885 119.46C31.3125 120.064 29.5973 119.14 29.0085 117.575C28.3493 115.821 30.3525 114.442 32.5061 113.933C39.8437 112.199 45.9813 114.708 50.5349 120.445L50.5285 120.42Z" fill="#40B75B"/>
<path d="M50.0232 121.281C50.0456 121.284 50.0683 121.282 50.0899 121.276C50.1115 121.269 50.1313 121.258 50.148 121.242C50.1775 121.212 50.194 121.171 50.194 121.129C50.194 121.086 50.1775 121.046 50.148 121.015C44.708 114.868 35.188 114.807 31.3768 116.5C31.3378 116.517 31.3072 116.55 31.2919 116.589C31.2766 116.629 31.2778 116.674 31.2952 116.713C31.3126 116.752 31.3448 116.782 31.3847 116.798C31.4246 116.813 31.469 116.812 31.508 116.794C35.2424 115.134 44.5864 115.194 49.908 121.226C49.9219 121.243 49.9395 121.257 49.9594 121.267C49.9794 121.276 50.0012 121.281 50.0232 121.281Z" fill="white"/>
<path d="M101.21 39.0351C95.52 35.8251 87.68 36.2951 79.03 41.2851C61.62 51.3351 47.5 75.8251 47.5 95.8851C47.5 105.885 51.03 112.985 56.73 116.275L67.5 122.475C73.2 125.755 81.07 125.275 89.76 120.255C107.17 110.205 121.28 85.7651 121.28 65.6651C121.28 55.6651 117.77 48.5951 112.1 45.2951C109.72 43.9051 103.62 40.3951 101.21 39.0351Z" fill="#37474F"/>
<path opacity="0.15" d="M48.66 85.4355C47.9126 88.8693 47.5238 92.3714 47.5 95.8855C47.5 105.886 51.03 112.986 56.73 116.276L67.5 122.476C73.2 125.756 81.07 125.276 89.76 120.256C92.7853 118.486 95.6173 116.404 98.21 114.046L48.66 85.4355Z" fill="black"/>
<path d="M112.06 96.7051C117.76 86.8351 121.28 75.7051 121.28 65.7051C121.28 45.5951 107.17 37.4551 89.7602 47.5051C72.3502 57.5551 58.2402 81.9551 58.2402 102.055C58.2402 122.155 72.3502 130.305 89.7602 120.255C94.3295 117.54 98.4769 114.171 102.07 110.255L114.93 112.605C115.303 112.673 115.687 112.64 116.042 112.509C116.397 112.379 116.711 112.156 116.951 111.863C117.191 111.57 117.348 111.218 117.406 110.844C117.464 110.47 117.42 110.087 117.28 109.735L112.06 96.7051Z" fill="#40B75B"/>
<path d="M112.06 96.7051C117.76 86.8351 121.28 75.7051 121.28 65.7051C121.28 45.5951 107.17 37.4551 89.7602 47.5051C72.3502 57.5551 58.2402 81.9551 58.2402 102.055C58.2402 122.155 72.3502 130.305 89.7602 120.255C94.3295 117.54 98.4769 114.171 102.07 110.255L114.93 112.605C115.303 112.673 115.687 112.64 116.042 112.509C116.397 112.379 116.711 112.156 116.951 111.863C117.191 111.57 117.348 111.218 117.406 110.844C117.464 110.47 117.42 110.087 117.28 109.735L112.06 96.7051Z" fill="#40B75B"/>
<path d="M92.2793 93.4653L88.1493 95.8253C88.0129 95.9373 87.8463 96.0062 87.6707 96.0233C87.495 96.0404 87.3183 96.0049 87.1629 95.9213C87.0075 95.8377 86.8804 95.7098 86.7979 95.5538C86.7153 95.3978 86.681 95.2208 86.6993 95.0453L85.0293 64.1353C85.0333 63.6753 85.1514 63.2234 85.3731 62.8202C85.5947 62.4171 85.913 62.0752 86.2993 61.8253L94.1293 57.3053C94.8793 56.8653 95.4493 57.2153 95.3993 58.0853L93.7193 91.1553C93.6645 91.6227 93.507 92.0723 93.2581 92.4716C93.0091 92.871 92.6749 93.2103 92.2793 93.4653Z" fill="#FAFAFA"/>
<path d="M90.21 110.116C87.58 111.636 86 109.666 86 106.926C86.0085 105.338 86.3947 103.776 87.1268 102.367C87.8589 100.959 88.9157 99.7449 90.21 98.8258C92.85 97.3058 94.43 99.2758 94.43 102.016C94.4204 103.604 94.0326 105.167 93.2988 106.576C92.5649 107.984 91.5061 109.198 90.21 110.116Z" fill="#FAFAFA"/>
<path d="M34.7993 52.9689C34.9913 52.9175 35.1333 52.8122 35.2252 52.653C35.317 52.4939 35.3373 52.3183 35.2858 52.1263L34.1343 47.8288C34.0868 47.6516 33.9798 47.518 33.8133 47.4281C33.6467 47.3382 33.4748 47.317 33.2976 47.3644C33.1056 47.4159 32.9637 47.5212 32.8718 47.6803C32.7799 47.8395 32.7597 48.0151 32.8111 48.2071L33.9626 52.5046C34.0101 52.6818 34.1171 52.8154 34.2837 52.9053C34.4502 52.9952 34.6221 53.0164 34.7993 52.9689ZM35.641 56.376C35.8478 56.3206 36.0025 56.204 36.1052 56.0261C36.2079 55.8482 36.2316 55.6559 36.1762 55.4491C36.1208 55.2424 36.0041 55.0877 35.8262 54.985C35.6484 54.8822 35.456 54.8586 35.2493 54.914C35.0425 54.9694 34.8878 55.086 34.7851 55.2639C34.6824 55.4418 34.6587 55.6341 34.7141 55.8409C34.7695 56.0476 34.8862 56.2024 35.0641 56.3051C35.242 56.4078 35.4343 56.4314 35.641 56.376ZM36.8282 60.8065C35.5729 61.1428 34.3458 61.2302 33.1471 61.0687C31.9483 60.9071 30.8433 60.5344 29.8322 59.9506C28.821 59.3668 27.9458 58.5963 27.2065 57.6389C26.4672 56.6815 25.9294 55.5752 25.593 54.3199C25.2606 53.0793 25.1752 51.8597 25.3368 50.6609C25.4983 49.4622 25.871 48.3572 26.4548 47.346C27.0386 46.3349 27.8082 45.456 28.7636 44.7093C29.719 43.9626 30.8243 43.4211 32.0796 43.0847C33.3202 42.7523 34.5408 42.6706 35.7415 42.8395C36.9423 43.0085 38.0482 43.3848 39.0594 43.9686C40.0706 44.5524 40.9495 45.322 41.6962 46.2774C42.4428 47.2328 42.9824 48.3308 43.3148 49.5713C43.6511 50.8266 43.7348 52.0546 43.5659 53.2554C43.397 54.4561 43.0206 55.5621 42.4368 56.5733C41.853 57.5844 41.0824 58.4596 40.125 59.1989C39.1676 59.9382 38.0687 60.4741 36.8282 60.8065Z" fill="#F5F5F5"/>
<path d="M99.5043 19.7251C99.59 19.7746 99.6771 19.7875 99.7656 19.7638C99.854 19.7401 99.923 19.6854 99.9725 19.5996L101.081 17.6801C101.126 17.6009 101.136 17.5162 101.109 17.4258C101.082 17.3355 101.029 17.2675 100.95 17.2218C100.864 17.1723 100.777 17.1593 100.688 17.183C100.6 17.2067 100.531 17.2615 100.481 17.3472L99.3731 19.2668C99.3274 19.3459 99.3181 19.4307 99.3451 19.521C99.3721 19.6114 99.4251 19.6794 99.5043 19.7251ZM98.6006 21.2218C98.6929 21.2752 98.7885 21.2886 98.8874 21.2621C98.9862 21.2356 99.0623 21.1762 99.1156 21.0838C99.1689 20.9915 99.1823 20.8959 99.1559 20.797C99.1294 20.6982 99.0699 20.6221 98.9776 20.5688C98.8852 20.5155 98.7897 20.5021 98.6908 20.5285C98.592 20.555 98.5159 20.6144 98.4626 20.7068C98.4092 20.7991 98.3958 20.8947 98.4223 20.9936C98.4488 21.0924 98.5082 21.1685 98.6006 21.2218ZM97.458 23.2008C96.8973 22.877 96.4343 22.4756 96.0689 21.9964C95.7035 21.5172 95.4456 20.9966 95.295 20.4348C95.1445 19.8729 95.1076 19.2931 95.1844 18.6954C95.2613 18.0977 95.4615 17.5185 95.7852 16.9578C96.1052 16.4038 96.5047 15.944 96.9839 15.5786C97.4631 15.2132 97.9837 14.9553 98.5455 14.8047C99.1074 14.6542 99.6881 14.6157 100.288 14.6892C100.887 14.7627 101.467 14.9613 102.028 15.2851C102.582 15.605 103.041 16.0062 103.405 16.4887C103.768 16.9712 104.025 17.4934 104.176 18.0552C104.326 18.6171 104.365 19.1978 104.291 19.7974C104.218 20.397 104.021 20.9739 103.701 21.528C103.377 22.0887 102.974 22.5508 102.492 22.9142C102.009 23.2777 101.487 23.5347 100.925 23.6853C100.363 23.8358 99.7834 23.8727 99.1857 23.7959C98.588 23.719 98.0121 23.5207 97.458 23.2008Z" fill="#F5F5F5"/>
<path d="M142.431 66.6456C142.554 66.6128 142.644 66.5456 142.703 66.4441C142.762 66.3426 142.775 66.2306 142.742 66.1082L142.007 63.367C141.977 63.254 141.909 63.1688 141.803 63.1114C141.696 63.0541 141.587 63.0406 141.474 63.0708C141.351 63.1037 141.261 63.1708 141.202 63.2723C141.143 63.3739 141.131 63.4859 141.163 63.6083L141.898 66.3494C141.928 66.4625 141.996 66.5477 142.103 66.605C142.209 66.6624 142.318 66.6759 142.431 66.6456ZM142.968 68.8188C143.1 68.7835 143.199 68.7091 143.264 68.5956C143.33 68.4821 143.345 68.3595 143.31 68.2276C143.274 68.0957 143.2 67.997 143.086 67.9315C142.973 67.866 142.85 67.8509 142.718 67.8863C142.587 67.9216 142.488 67.996 142.422 68.1095C142.357 68.2229 142.342 68.3456 142.377 68.4775C142.412 68.6093 142.487 68.708 142.6 68.7735C142.714 68.8391 142.836 68.8541 142.968 68.8188ZM143.726 71.6447C142.925 71.8593 142.142 71.915 141.378 71.812C140.613 71.7089 139.908 71.4712 139.263 71.0988C138.618 70.7265 138.06 70.235 137.588 69.6243C137.117 69.0136 136.774 68.308 136.559 67.5073C136.347 66.716 136.293 65.9381 136.396 65.1735C136.499 64.4089 136.737 63.7041 137.109 63.0591C137.481 62.4141 137.972 61.8535 138.582 61.3773C139.191 60.901 139.896 60.5556 140.697 60.3411C141.488 60.129 142.267 60.0769 143.032 60.1847C143.798 60.2924 144.504 60.5325 145.149 60.9049C145.794 61.2772 146.354 61.7681 146.831 62.3775C147.307 62.9869 147.651 63.6872 147.863 64.4785C148.078 65.2792 148.131 66.0624 148.023 66.8283C147.915 67.5942 147.675 68.2996 147.303 68.9446C146.931 69.5896 146.439 70.1478 145.828 70.6194C145.218 71.0909 144.517 71.4327 143.726 71.6447Z" fill="#F5F5F5"/>
</svg>
